<?xml version="1.0" standalone="no"?>
<!DOCTYPE svg PUBLIC "-//W3C//DTD SVG 20010904//EN"
 "http://www.w3.org/TR/2001/REC-SVG-20010904/DTD/svg10.dtd">
<svg version="1.0" xmlns="http://www.w3.org/2000/svg"
 width="512.000000pt" height="512.000000pt" viewBox="0 0 512.000000 512.000000"
 preserveAspectRatio="xMidYMid meet">

<g transform="translate(0.000000,512.000000) scale(0.100000,-0.100000)"
fill="#000000" stroke="none">
<path d="M2425 5114 c-459 -46 -827 -216 -1135 -524 -542 -542 -682 -1359
-351 -2045 59 -122 1490 -2443 1540 -2498 48 -52 139 -60 195 -16 28 22 1418
2332 1492 2479 82 164 136 328 171 520 21 116 23 425 4 545 -63 398 -234 738
-511 1015 -275 275 -624 452 -1009 510 -80 12 -330 21 -396 14z m380 -928
c303 -91 527 -315 621 -621 25 -82 28 -104 28 -245 0 -140 -3 -164 -27 -243
-128 -417 -484 -674 -907 -654 -395 18 -708 266 -827 654 -24 79 -27 103 -27
243 0 141 3 163 28 245 102 334 350 562 697 640 103 23 302 14 414 -19z"/>
<path d="M2430 3904 c-266 -57 -470 -311 -470 -584 0 -324 276 -600 600 -600
276 0 528 205 585 475 43 204 -16 397 -164 546 -149 149 -347 207 -551 163z"/>
</g>
</svg>
